<?xml version="1.0" encoding="utf-8"?>
<!-- Generator: Adobe Illustrator 23.0.1, SVG Export Plug-In . SVG Version: 6.00 Build 0)  -->
<svg version="1.1" id="Layer_1" xmlns="http://www.w3.org/2000/svg" xmlns:xlink="http://www.w3.org/1999/xlink" x="0px" y="0px"
	 viewBox="0 0 128 128" style="enable-background:new 0 0 128 128;" xml:space="preserve">
<style type="text/css">
	.st0{fill:#2E9DD4;}
</style>
<path class="st0" d="M123.34,63.51c0,17.05-0.05,34.1,0.03,51.15c0.03,5.18-1.55,9.34-6.5,11.5c-7.55,3.3-15.24-2.25-15.38-11.25
	c-0.17-11.57-0.27-23.14,0.06-34.7c0.13-4.71-1.4-5.98-5.97-5.87c-11.71,0.29-23.44,0.13-35.16,0.07
	c-4.85-0.03-8.62-2.26-10.49-6.71c-1.78-4.22-1.18-8.4,2.11-11.87c2.48-2.61,5.68-3.29,9.17-3.27c11.72,0.04,23.45-0.15,35.16,0.09
	c4.09,0.08,5.22-1.35,5.15-5.28c-0.21-11.72-0.16-23.44-0.04-35.16c0.08-7.51,4.53-12.21,11.18-12.19
	c6.48,0.01,10.58,4.07,10.63,10.99c0.11,14,0.04,28.01,0.05,42.01C123.35,56.51,123.34,60.01,123.34,63.51z"/>
<path class="st0" d="M26.98,63.94c0,16.75,0.03,33.5-0.02,50.25c-0.02,6.47-2.87,10.69-8.1,12.36c-5.91,1.89-12.33-1.83-13.51-7.98
	c-0.45-2.37-0.69-4.83-0.7-7.25c-0.04-31.83-0.04-63.66,0-95.48c0-2.42,0.24-4.87,0.64-7.26c0.74-4.4,4.47-8.09,8.32-8.51
	c5.96-0.65,10.24,1.58,12.21,6.46c0.92,2.28,1.18,4.68,1.17,7.15C26.96,30.44,26.98,47.19,26.98,63.94z"/>
</svg>
