<?xml version="1.0" encoding="utf-8"?>
<!-- Generator: Adobe Illustrator 23.0.1, SVG Export Plug-In . SVG Version: 6.00 Build 0)  -->
<svg version="1.1" id="Layer_1" xmlns="http://www.w3.org/2000/svg" xmlns:xlink="http://www.w3.org/1999/xlink" x="0px" y="0px"
	 viewBox="0 0 1000 500" style="enable-background:new 0 0 1000 500;" xml:space="preserve">
<style type="text/css">
	.st0{fill:#2E9DD4;}
	.st1{fill:#3DA6D8;}
</style>
<path class="st0" d="M596.14,200.51c0,27.88-0.09,55.77,0.05,83.65c0.04,8.48-2.54,15.27-10.64,18.81
	c-12.35,5.4-24.93-3.68-25.15-18.4c-0.29-18.92-0.43-37.85,0.09-56.76c0.22-7.71-2.29-9.78-9.76-9.6
	c-19.16,0.48-38.34,0.22-57.5,0.11c-7.93-0.04-14.09-3.7-17.16-10.98c-2.91-6.9-1.93-13.74,3.46-19.41
	c4.06-4.27,9.29-5.37,14.99-5.35c19.17,0.07,38.34-0.24,57.51,0.14c6.7,0.13,8.53-2.21,8.42-8.63c-0.34-19.16-0.27-38.34-0.07-57.51
	c0.13-12.29,7.42-19.96,18.29-19.94c10.6,0.02,17.3,6.65,17.39,17.97c0.19,22.9,0.07,45.81,0.07,68.71
	C596.14,189.06,596.14,194.79,596.14,200.51z"/>
<path class="st0" d="M438.54,201.22c0,27.4,0.05,54.79-0.03,82.19c-0.03,10.58-4.7,17.48-13.25,20.21
	c-9.67,3.09-20.16-3-22.09-13.06c-0.74-3.88-1.13-7.9-1.14-11.85c-0.07-52.05-0.07-104.1,0-156.15c0.01-3.96,0.39-7.96,1.05-11.87
	c1.22-7.19,7.31-13.23,13.61-13.92c9.75-1.07,16.75,2.59,19.97,10.57c1.51,3.73,1.93,7.65,1.91,11.7
	C438.5,146.43,438.54,173.83,438.54,201.22z"/>
<path class="st1" d="M497.85,334.36c3.24,0.31,5.62,2.04,7.15,4.77c1.79,3.19-0.57,5.13-2.58,6.97c-1.08,0.99-2.37,1.81-3.69,2.46
	c-3.13,1.55-5.59,3.54-4.82,7.45c0.86,4.35,4.11,5.76,8.12,6.38c7.85,1.21,15.88,0.67,23.66,2.82c10.96,3.02,17.6,10.32,17.81,20.26
	c0.2,9.48-6.04,17.24-16.38,20.77c-4.42,1.51-7.36-0.12-9.24-3.87c-2.12-4.22-0.11-7.45,3.67-9.18c3.99-1.83,8.66-3.26,7-8.72
	c-1.59-5.22-6.51-6.37-11.5-6.36c-10.55,0.02-20.9-0.83-30.07-6.84c-6.81-4.46-9.81-14.19-7.05-22.62
	C481.94,342.55,492.25,334.32,497.85,334.36z"/>
<path class="st1" d="M377.62,407.6c-5.77,0.06-8.74-3.97-6.62-8.87c0.86-1.97,2.48-3.7,4.04-5.27
	c18.57-18.65,37.21-37.24,55.8-55.87c3.54-3.55,7.44-6.95,12.12-2.56c5.07,4.76,1.6,8.89-2.16,12.65
	c-18.67,18.64-37.33,37.3-55.96,55.98C382.69,405.82,380.65,407.99,377.62,407.6z"/>
<path class="st1" d="M120.31,370.99c0,9.69,0,19.38,0.01,29.07c0,4.6-1.48,7.64-6.85,7.6c-4.99-0.04-6.44-3.04-6.57-7.19
	c-0.16-5.21-0.36-10.45-0.03-15.64c0.36-5.62-2.21-7.63-7.45-7.51c-4.97,0.12-9.94-0.02-14.91,0.02c-4.58,0.04-8.35-2.01-8.44-6.52
	c-0.1-4.75,3.38-7.47,8.44-7.46c5.22,0.01,10.44-0.15,15.65,0.01c4.7,0.15,6.85-1.74,6.68-6.58c-0.19-5.46-0.08-10.93,0.04-16.39
	c0.1-4.34,2.16-7.19,6.77-7.16c4.59,0.03,6.64,2.77,6.64,7.2C120.31,350.62,120.31,360.8,120.31,370.99z"/>
<path class="st1" d="M303.63,346.18c-9.34,3.46-17.02,8.57-19.29,19.16c-2.28,10.66,1.03,18.64,10.19,24.99
	c0.82,0.56,1.65,1.1,2.46,1.68c3.56,2.55,5.73,5.55,3.2,10.04c-2.63,4.65-6.62,3.74-10.39,2.17c-6.15-2.55-10.74-7.27-14.47-12.54
	c-12.97-18.33-5.54-45.53,14.79-55.23c4.78-2.28,8.16-0.72,10.63,3.47C301.95,341.97,302.76,344.25,303.63,346.18z"/>
<path class="st1" d="M231.54,407.59c-3.25,0.57-5.15-1.83-6.67-4.45c-11.25-19.35-22.48-38.7-33.56-58.14
	c-2.44-4.28-2.83-8.82,2.41-11.49c5.06-2.59,7.77,0.76,10.06,4.74c11.03,19.18,22.24,38.27,33.09,57.55
	C240.74,402.71,238.38,407.62,231.54,407.59z"/>
<path class="st1" d="M948.03,371.26c2.33,19.6-19.59,38.04-34.42,36.52c-4.14-0.43-7.62-0.75-7.98-5.59c-0.34-4.63,2.51-6.38,6.86-7
	c14.4-2.08,23.09-11.48,23.13-24.62c0.04-12.71-9.17-22.91-23-24.95c-4.19-0.62-7.62-1.56-7-6.55c0.66-5.4,5.05-5.58,9.11-5.22
	C933.84,335.5,949.47,354.11,948.03,371.26z"/>
<path class="st1" d="M615.31,332.47c14.93,0.15,27.43,12.73,26.5,26.11c-1.04,14.96-14.34,26-29.25,24.29
	c-4.47-0.51-7.85-2.7-7.76-7.39c0.09-4.6,3.28-6.96,7.92-7.12c1.99-0.07,4.06,0.18,5.94-0.3c5.4-1.38,8.8-4.94,8.63-10.63
	c-0.16-5.21-3.27-8.69-8.37-10.11c-1.18-0.33-2.46-0.35-3.7-0.37c-5.29-0.08-10.74-0.78-10.37-7.56
	C605.21,332.92,610.47,332.05,615.31,332.47z"/>
<path class="st1" d="M676.65,370.21c0-8.95,0.13-17.89-0.05-26.83c-0.12-5.6,1.15-10.62,7.53-10.6c6.72,0.03,7.07,5.68,7.07,10.88
	c-0.01,18.14-0.06,36.28,0.03,54.42c0.03,5.33-1,9.49-7.5,9.52c-6.93,0.03-7.05-4.88-7.07-9.8
	C676.62,388.6,676.65,379.4,676.65,370.21z"/>
<path class="st1" d="M791.79,370.76c-0.01,9.46,0.03,18.92-0.02,28.38c-0.03,5.1-1.65,8.7-7.74,8.55c-5.99-0.15-6.76-4.33-6.79-8.7
	c-0.13-18.67-0.09-37.34-0.04-56.01c0.01-5.16,1.72-10.13,7.5-10.09c5.9,0.03,7.21,4.95,7.13,10.25
	C791.7,352.33,791.79,361.55,791.79,370.76z"/>
<path class="st1" d="M183.88,393.12c-6.99-1.81-12.56,1.07-15.58,9.2c-1.88,5.07-6.35,6.9-10.86,4.58
	c-5.08-2.61-3.96-7.25-1.48-11.54c5.84-10.07,11.68-20.15,17.42-30.28c2.71-4.79,6.35-8.42,11.89-5.42c5.84,3.17,3.19,8,0.64,12.14
	c-2.29,3.71-4.12,6.87,2.78,6.81c5.33-0.04,11.49-0.11,11.1,7.42c-0.36,7.01-6.14,7.32-11.64,7.07
	C187.17,393.08,186.17,393.12,183.88,393.12z"/>
<path class="st1" d="M592.69,370.82c0,9.46,0.11,18.93-0.05,28.39c-0.07,4.07-0.53,8.09-6.18,8.42c-5.89,0.35-7.09-3.2-7.39-7.94
	c-1.23-19.63-1.24-39.26,0-58.9c0.29-4.62,2.14-7.81,7.22-7.53c5.2,0.28,6.35,4.1,6.38,8.43
	C592.73,351.4,592.69,361.11,592.69,370.82z"/>
<path class="st1" d="M878.54,370.97c0-9.46,0-18.92,0-28.38c0-4.8,0.62-9.42,6.88-9.33c5.66,0.08,6.63,4.22,6.63,8.87
	c-0.02,18.92,0.02,37.84-0.04,56.75c-0.01,4.43-0.45,8.64-6.56,8.75c-6.57,0.12-6.94-4.22-6.93-9.03
	C878.56,389.39,878.54,380.18,878.54,370.97z"/>
<path class="st0" d="M50.9,370.22c0-9.93,0.05-19.87-0.03-29.8c-0.03-4.05,1.32-6.89,5.75-7.06c4.14-0.16,5.82,2.24,7.05,6.12
	c1.81,5.72-0.09,11.14-0.07,16.69c0.04,14.9-0.49,29.82,0.24,44.69c0.26,5.31-0.91,6.55-5.68,6.71c-5.02,0.17-7.38-1.63-7.31-6.81
	C51,390.59,50.9,380.4,50.9,370.22z"/>
<path class="st1" d="M825.3,346.89c-4.48,0-8.96,0.14-13.44-0.04c-4.26-0.17-8.09-1.32-8.1-6.66c-0.01-5.22,2.99-7.66,8.01-7.7
	c7.46-0.07,14.94-0.17,22.4,0.03c6.72,0.18,9.37,4.1,8.45,10.83c-0.38,2.82-0.81,3.78-3.9,3.49c-4.44-0.42-8.95-0.11-13.42-0.11
	C825.3,346.78,825.3,346.84,825.3,346.89z"/>
<path class="st1" d="M722.06,407.61c-4.23,0-8.45-0.02-12.68,0c-3.89,0.02-6.1-1.85-6.28-5.77c-0.17-3.75,1.63-6.71,5.35-6.84
	c9.42-0.32,18.87-0.31,28.28,0.12c3.61,0.17,5.58,3.13,5.28,6.92c-0.31,3.91-2.71,5.6-6.53,5.58
	C731.01,407.59,726.53,407.62,722.06,407.61z"/>
<path class="st1" d="M823.81,407.64c-4.48,0-8.96-0.07-13.44,0.02c-3.88,0.08-6.23-1.65-6.55-5.53c-0.31-3.71,1.44-6.84,5.16-7
	c9.42-0.42,18.89-0.54,28.31-0.06c4.6,0.23,5.31,4.43,5.47,8.42c0.2,5.02-3.64,3.86-6.27,4.04c-4.21,0.28-8.46,0.07-12.69,0.07
	C823.81,407.61,823.81,407.62,823.81,407.64z"/>
<path class="st1" d="M818.24,378.01c-1.48,0-2.97-0.06-4.45,0.01c-5.29,0.27-9.6-1.14-10-7.22c-0.42-6.47,4.74-7.5,9.42-8.11
	c3.64-0.47,7.44-0.3,11.09,0.19c4.47,0.6,8.3,2.51,7.79,8.02c-0.47,5.11-3.76,7.17-8.65,7.1
	C821.7,377.99,819.97,378.01,818.24,378.01z"/>
<path class="st1" d="M438.74,407.6c-2.01-0.04-3.85-0.3-5.4-1.92c-3.92-4.12-8.04-8.06-11.96-12.18c-2.3-2.43-2.76-5.29-0.66-8.09
	c2.12-2.83,5.01-4.4,8.37-2.46c6.74,3.88,12.2,9.36,16.09,15.96C447.79,403.33,444.23,407.6,438.74,407.6z"/>
<path class="st1" d="M716.13,378c-2.62-0.33-6.08,1-8.88-0.99c-2.53-1.8-5.67-3.69-4.48-7.7c0.99-3.35,3.2-5.66,6.86-5.83
	c4.45-0.2,8.91-0.16,13.36-0.12c4.79,0.04,8.5,2.16,8.74,7.15c0.25,5.27-3.8,7.03-8.38,7.45C721.14,378.16,718.9,378,716.13,378z"/>
<path class="st1" d="M485.25,405.75c-4.36-0.63-5.18-4.71-5.83-8.05c-0.76-3.94,1.6-7.16,5.68-7.22c6.25-0.09,12.32,1.6,17.62,5.05
	c2.38,1.55,3.8,4.2,2.34,7.14c-1.36,2.73-3.34,4.69-6.92,4.75C493.82,407.5,489.92,405.64,485.25,405.75z"/>
<path class="st1" d="M722.46,348.07c-4.17-1.57-8.43-0.88-12.59-1.26c-4.49-0.41-7.62-2.76-7.34-7.58c0.25-4.29,3.09-6.65,7.39-6.71
	c8.17-0.11,16.35-0.11,24.52-0.01c4.65,0.06,7.56,2.52,7.58,7.26c0.02,4.47-3.03,6.57-7.14,7.05
	C730.73,347.3,726.44,346.23,722.46,348.07z M722.06,343.29c3.95,0,7.9,0.05,11.85-0.02c2.48-0.05,4.49-1.03,4.42-3.84
	c-0.06-2.37-1.85-3.45-4.04-3.46c-7.65-0.06-15.31-0.09-22.95,0.06c-2.6,0.05-4.02,1.73-3.9,4.4c0.12,2.78,2.22,2.86,4.25,2.88
	C715.14,343.33,718.6,343.31,722.06,343.29z"/>
<path class="st1" d="M319.25,335.47c5.73-0.16,16.02,8.09,16.21,12.76c0.18,4.48-2.4,7-6.56,7.45c-4.3,0.47-16.76-9.62-16.43-13.18
	C312.86,338.32,315.32,335.79,319.25,335.47z"/>
<path class="st1" d="M322.36,405.01c-5.54,0.58-7.75-0.95-9.21-3.99c-1.45-3.03-0.26-5.59,1.86-7.31c3.43-2.79,7.15-5.35,11.08-7.35
	c2.73-1.38,5.95-0.91,8.12,1.72c1.94,2.35,1.95,5.29,0.4,7.66C331.23,400.9,325.83,403.3,322.36,405.01z"/>
<path class="st1" d="M542.85,345.92c-6.26,6.31-13.15,5.19-20.22,2.01c-3.73-1.68-6.53-4.16-5.18-8.53c1.35-4.35,4.53-5.72,9.3-4.92
	C534.17,335.71,539.3,339.7,542.85,345.92z"/>
<path class="st1" d="M370.28,352.78c0-4.47-0.22-8.96,0.07-13.41c0.25-3.89,2.55-6.58,6.58-6.72c3.61-0.13,6.24,1.83,6.79,5.59
	c1.39,9.61,1.55,19.26-0.15,28.84c-0.74,4.17-3.78,5.56-7.78,5.08c-3.96-0.48-5.45-3.05-5.5-6.71
	C370.23,361.23,370.27,357,370.28,352.78z M381.29,352.58c0-3.7-0.04-7.41,0.01-11.11c0.04-2.7-1.04-4.17-3.92-4.1
	c-2.51,0.06-4.68,0.95-4.76,3.6c-0.21,7.64-0.3,15.3,0.05,22.93c0.11,2.5,2.25,4.68,5.06,4.52c3.2-0.18,3.58-2.85,3.57-5.48
	C381.29,359.49,381.3,356.04,381.29,352.58z"/>
<path class="st0" d="M722.06,343.3c-3.46,0.01-6.91,0.03-10.37,0c-2.04-0.02-4.13-0.1-4.25-2.88c-0.12-2.67,1.3-4.35,3.9-4.4
	c7.65-0.14,15.3-0.12,22.95-0.06c2.18,0.02,3.98,1.09,4.04,3.46c0.07,2.81-1.95,3.8-4.42,3.84
	C729.96,343.34,726.01,343.29,722.06,343.3z"/>
<path class="st0" d="M381.29,352.58c0.01,3.46,0,6.91,0.01,10.37c0.01,2.63-0.37,5.31-3.57,5.48c-2.81,0.15-4.94-2.03-5.06-4.52
	c-0.34-7.63-0.26-15.29-0.05-22.93c0.07-2.65,2.25-3.54,4.76-3.6c2.88-0.07,3.95,1.4,3.92,4.1
	C381.25,345.18,381.29,348.88,381.29,352.58z"/>
</svg>
